<svg width="84" height="51" viewBox="0 0 84 51" fill="none" xmlns="http://www.w3.org/2000/svg">
<path d="M8.242 0.592H11.57L13.676 6.702L15.808 0.592H19.11L15.938 8.99L18.278 14.866L23.504 0.539999H27.404L20.02 19H16.926L13.676 11.252L10.452 19H7.358L0 0.539999H3.848L9.1 14.866L11.388 8.99L8.242 0.592ZM34.227 19.26C33.135 19.26 32.147 19.078 31.263 18.714C30.379 18.3327 29.625 17.8213 29.001 17.18C28.377 16.5213 27.8916 15.776 27.545 14.944C27.2156 14.0947 27.051 13.202 27.051 12.266C27.051 10.966 27.337 9.77867 27.909 8.704C28.4983 7.62933 29.3303 6.77133 30.405 6.13C31.497 5.47133 32.7796 5.142 34.253 5.142C35.7436 5.142 37.0176 5.47133 38.075 6.13C39.1323 6.77133 39.9383 7.62933 40.493 8.704C41.065 9.76133 41.351 10.9053 41.351 12.136C41.351 12.344 41.3423 12.5607 41.325 12.786C41.3076 12.994 41.2903 13.1673 41.273 13.306H30.743C30.8123 13.9993 31.0116 14.606 31.341 15.126C31.6876 15.646 32.121 16.0447 32.641 16.322C33.1783 16.582 33.7503 16.712 34.357 16.712C35.0503 16.712 35.7003 16.5473 36.307 16.218C36.931 15.8713 37.3556 15.4207 37.581 14.866L40.571 15.698C40.2416 16.3913 39.765 17.0067 39.141 17.544C38.5343 18.0813 37.815 18.506 36.983 18.818C36.151 19.1127 35.2323 19.26 34.227 19.26ZM30.665 11.096H37.789C37.7196 10.4027 37.5203 9.80467 37.191 9.302C36.879 8.782 36.463 8.38333 35.943 8.106C35.423 7.81133 34.8423 7.664 34.201 7.664C33.577 7.664 33.005 7.81133 32.485 8.106C31.9823 8.38333 31.5663 8.782 31.237 9.302C30.925 9.80467 30.7343 10.4027 30.665 11.096ZM52.0014 19.26C50.9614 19.26 50.0341 19.026 49.2194 18.558C48.4048 18.09 47.7634 17.4487 47.2954 16.634V19H44.2534V0.0199995H47.7374V7.768C48.2228 6.95333 48.8554 6.312 49.6354 5.844C50.4328 5.376 51.3601 5.142 52.4174 5.142C53.3014 5.142 54.1074 5.33267 54.8354 5.714C55.5634 6.078 56.1874 6.58933 56.7074 7.248C57.2448 7.90667 57.6521 8.66067 57.9294 9.51C58.2241 10.3593 58.3714 11.2693 58.3714 12.24C58.3714 13.2107 58.2068 14.1207 57.8774 14.97C57.5654 15.8193 57.1234 16.5733 56.5514 17.232C55.9794 17.8733 55.3034 18.376 54.5234 18.74C53.7608 19.0867 52.9201 19.26 52.0014 19.26ZM51.0394 16.296C51.5941 16.296 52.0968 16.192 52.5474 15.984C53.0154 15.7587 53.4141 15.464 53.7434 15.1C54.0901 14.736 54.3501 14.3113 54.5234 13.826C54.7141 13.3233 54.8094 12.8033 54.8094 12.266C54.8094 11.5207 54.6534 10.836 54.3414 10.212C54.0468 9.57067 53.6308 9.05933 53.0934 8.678C52.5734 8.29667 51.9581 8.106 51.2474 8.106C50.7448 8.106 50.2594 8.22733 49.7914 8.47C49.3408 8.69533 48.9334 9.00733 48.5694 9.406C48.2228 9.80467 47.9454 10.2553 47.7374 10.758V14.008C47.8414 14.3547 48.0061 14.6667 48.2314 14.944C48.4741 15.2213 48.7514 15.464 49.0634 15.672C49.3754 15.8627 49.6961 16.0187 50.0254 16.14C50.3721 16.244 50.7101 16.296 51.0394 16.296Z" fill="#2196F3"/>
<path d="M12.922 36.376C12.8007 36.2547 12.5753 36.09 12.246 35.882C11.934 35.674 11.544 35.4747 11.076 35.284C10.6253 35.0933 10.1313 34.9287 9.594 34.79C9.05667 34.634 8.51067 34.556 7.956 34.556C6.98533 34.556 6.24867 34.738 5.746 35.102C5.26067 35.466 5.018 35.9773 5.018 36.636C5.018 37.1387 5.174 37.5373 5.486 37.832C5.798 38.1267 6.266 38.378 6.89 38.586C7.514 38.794 8.294 39.0193 9.23 39.262C10.4433 39.5567 11.492 39.9207 12.376 40.354C13.2773 40.77 13.962 41.3247 14.43 42.018C14.9153 42.694 15.158 43.5953 15.158 44.722C15.158 45.71 14.976 46.5593 14.612 47.27C14.248 47.9633 13.7453 48.5267 13.104 48.96C12.4627 49.3933 11.7347 49.714 10.92 49.922C10.1053 50.1127 9.23867 50.208 8.32 50.208C7.40133 50.208 6.48267 50.1127 5.564 49.922C4.64533 49.7313 3.76133 49.4627 2.912 49.116C2.06267 48.752 1.28267 48.3187 0.572 47.816L2.158 44.722C2.314 44.878 2.59133 45.086 2.99 45.346C3.38867 45.5887 3.874 45.84 4.446 46.1C5.018 46.3427 5.642 46.5507 6.318 46.724C6.994 46.8973 7.67867 46.984 8.372 46.984C9.34267 46.984 10.0793 46.8193 10.582 46.49C11.0847 46.1607 11.336 45.6927 11.336 45.086C11.336 44.5313 11.1367 44.098 10.738 43.786C10.3393 43.474 9.78467 43.2053 9.074 42.98C8.36333 42.7373 7.52267 42.4773 6.552 42.2C5.39067 41.8707 4.42 41.5067 3.64 41.108C2.86 40.692 2.27933 40.172 1.898 39.548C1.51667 38.924 1.326 38.144 1.326 37.208C1.326 35.9427 1.62067 34.8853 2.21 34.036C2.81667 33.1693 3.63133 32.5193 4.654 32.086C5.67667 31.6353 6.812 31.41 8.06 31.41C8.92667 31.41 9.74133 31.5053 10.504 31.696C11.284 31.8867 12.012 32.138 12.688 32.45C13.364 32.762 13.9707 33.1 14.508 33.464L12.922 36.376ZM26.1706 49.298C25.876 49.4193 25.5206 49.558 25.1046 49.714C24.6886 49.87 24.238 49.9913 23.7526 50.078C23.2846 50.182 22.808 50.234 22.3226 50.234C21.6813 50.234 21.092 50.1213 20.5546 49.896C20.0173 49.6707 19.584 49.3153 19.2546 48.83C18.9426 48.3273 18.7866 47.6773 18.7866 46.88V39.054H16.9926V36.376H18.7866V31.956H22.2706V36.376H25.1306V39.054H22.2706V45.71C22.288 46.178 22.418 46.516 22.6606 46.724C22.9033 46.932 23.2066 47.036 23.5706 47.036C23.9346 47.036 24.29 46.9753 24.6366 46.854C24.9833 46.7327 25.2606 46.6287 25.4686 46.542L26.1706 49.298ZM28.6351 44.904V36.376H32.1191V44.15C32.1191 45.19 32.3098 45.9787 32.6911 46.516C33.0725 47.036 33.6358 47.296 34.3811 47.296C34.8318 47.296 35.2738 47.2093 35.7071 47.036C36.1578 46.8453 36.5651 46.568 36.9291 46.204C37.3105 45.84 37.6311 45.3807 37.8911 44.826V36.376H41.3751V46.1C41.3751 46.464 41.4358 46.724 41.5571 46.88C41.6958 47.036 41.9125 47.1313 42.2071 47.166V50C41.8605 50.052 41.5658 50.0867 41.3231 50.104C41.0978 50.1387 40.8898 50.156 40.6991 50.156C40.0751 50.156 39.5638 50.0173 39.1651 49.74C38.7838 49.4453 38.5585 49.0467 38.4891 48.544L38.4111 47.452C37.8045 48.3707 37.0245 49.0727 36.0711 49.558C35.1178 50.026 34.0691 50.26 32.9251 50.26C31.5211 50.26 30.4551 49.8093 29.7271 48.908C28.9991 47.9893 28.6351 46.6547 28.6351 44.904ZM44.7854 43.188C44.7854 41.8707 45.0454 40.6833 45.5654 39.626C46.0854 38.5513 46.8047 37.702 47.7234 37.078C48.6421 36.454 49.6907 36.142 50.8694 36.142C51.8747 36.142 52.7761 36.3933 53.5734 36.896C54.3881 37.3813 55.0207 38.0053 55.4714 38.768V31.02H58.9554V46.1C58.9554 46.464 59.0161 46.724 59.1374 46.88C59.2587 47.036 59.4667 47.1313 59.7614 47.166V50C59.1547 50.1213 58.6607 50.182 58.2794 50.182C57.6554 50.182 57.1354 50.026 56.7194 49.714C56.3207 49.402 56.0954 48.9947 56.0434 48.492L55.9914 47.634C55.4887 48.4833 54.8041 49.1333 53.9374 49.584C53.0881 50.0347 52.1954 50.26 51.2594 50.26C50.3234 50.26 49.4567 50.078 48.6594 49.714C47.8794 49.35 47.1947 48.8473 46.6054 48.206C46.0334 47.5647 45.5827 46.8193 45.2534 45.97C44.9414 45.1033 44.7854 44.176 44.7854 43.188ZM55.4714 45.008V41.758C55.2981 41.2553 55.0207 40.8047 54.6394 40.406C54.2581 40.0073 53.8334 39.6953 53.3654 39.47C52.8974 39.2273 52.4294 39.106 51.9614 39.106C51.4241 39.106 50.9387 39.2187 50.5054 39.444C50.0721 39.6693 49.6907 39.9727 49.3614 40.354C49.0494 40.7353 48.8067 41.1773 48.6334 41.68C48.4774 42.1827 48.3994 42.7113 48.3994 43.266C48.3994 43.8207 48.4861 44.3493 48.6594 44.852C48.8501 45.3373 49.1187 45.762 49.4654 46.126C49.8121 46.49 50.2107 46.776 50.6614 46.984C51.1294 47.192 51.6321 47.296 52.1694 47.296C52.4987 47.296 52.8281 47.244 53.1574 47.14C53.5041 47.0187 53.8247 46.8627 54.1194 46.672C54.4314 46.464 54.7001 46.2213 54.9254 45.944C55.1681 45.6493 55.3501 45.3373 55.4714 45.008ZM63.1552 50V36.376H66.6392V50H63.1552ZM63.1552 34.478V31.02H66.6392V34.478H63.1552ZM76.8542 50.26C75.7448 50.26 74.7482 50.078 73.8642 49.714C72.9802 49.3327 72.2262 48.8127 71.6022 48.154C70.9955 47.4953 70.5275 46.7413 70.1982 45.892C69.8688 45.0427 69.7042 44.15 69.7042 43.214C69.7042 42.2607 69.8688 41.3593 70.1982 40.51C70.5275 39.6607 70.9955 38.9067 71.6022 38.248C72.2262 37.5893 72.9802 37.078 73.8642 36.714C74.7482 36.3327 75.7448 36.142 76.8542 36.142C77.9635 36.142 78.9515 36.3327 79.8182 36.714C80.7022 37.078 81.4562 37.5893 82.0802 38.248C82.7042 38.9067 83.1722 39.6607 83.4842 40.51C83.8135 41.3593 83.9782 42.2607 83.9782 43.214C83.9782 44.15 83.8135 45.0427 83.4842 45.892C83.1722 46.7413 82.7042 47.4953 82.0802 48.154C81.4735 48.8127 80.7282 49.3327 79.8442 49.714C78.9602 50.078 77.9635 50.26 76.8542 50.26ZM73.2922 43.214C73.2922 44.0113 73.4482 44.722 73.7602 45.346C74.0722 45.9527 74.4968 46.4293 75.0342 46.776C75.5715 47.1227 76.1782 47.296 76.8542 47.296C77.5128 47.296 78.1108 47.1227 78.6482 46.776C79.1855 46.412 79.6102 45.9267 79.9222 45.32C80.2515 44.696 80.4162 43.9853 80.4162 43.188C80.4162 42.408 80.2515 41.706 79.9222 41.082C79.6102 40.458 79.1855 39.9727 78.6482 39.626C78.1108 39.2793 77.5128 39.106 76.8542 39.106C76.1782 39.106 75.5715 39.288 75.0342 39.652C74.4968 39.9987 74.0722 40.484 73.7602 41.108C73.4482 41.7147 73.2922 42.4167 73.2922 43.214Z" fill="black"/>
</svg>
